<svg xmlns="http://www.w3.org/2000/svg" xmlns:xlink="http://www.w3.org/1999/xlink" viewBox="0 0 16 16">
<path fill="#F9BF00" d="M15,6.42527246 C15,6.55455774 14.9269858,6.6960766 14.7809847,6.84853675 L11.7271493,9.97160064 L12.4504175,14.3824632 C12.4559497,14.4236438 12.459017,14.4828014 12.459017,14.5593617 C12.459017,14.6828748 12.4295758,14.7870899 12.370666,14.8719783 C12.3117835,14.9575271 12.2258973,15 12.1142398,15 C12.0074845,15 11.8952245,14.9646203 11.7774322,14.8944926 L7.99967135,12.8122586 L4.22254044,14.8944926 C4.09861343,14.9646203 3.98695588,15 3.88573284,15 C3.76794056,15 3.67961689,14.9575558 3.62070706,14.8719783 C3.56182461,14.7870612 3.532356,14.6828461 3.532356,14.5593617 C3.532356,14.523982 3.53788821,14.4647957 3.54892525,14.3824632 L4.27282331,9.97160064 L1.21041574,6.84853675 C1.06991948,6.68964393 1,6.54878557 1,6.42527246 C1,6.20785377 1.15703812,6.07210709 1.47114173,6.01938213 L5.69487547,5.37548281 L7.58743945,1.3615221 C7.6941947,1.12029677 7.8315962,1 7.99969874,1 C8.1684038,1 8.30520278,1.12029677 8.41195803,1.3615221 L10.3051245,5.37548281 L14.5288583,6.01938213 C14.8423594,6.07210709 15,6.20785377 15,6.42527246 L15,6.42527246 Z"></path>
</svg>